<?xml version="1.0" encoding="UTF-8"?>
<svg xmlns="http://www.w3.org/2000/svg" xmlns:xlink="http://www.w3.org/1999/xlink" viewBox="0 0 417.53 157.47">
  <defs>
    <style>
      .cls-1 {
        fill: #c1418f;
      }

      .cls-2 {
        fill: #e65e12;
      }

      .cls-3, .cls-4 {
        fill: #f2f4e4;
      }

      .cls-5 {
        fill: #f3971a;
      }

      .cls-6 {
        fill: none;
      }

      .cls-7 {
        filter: url(#drop-shadow-1);
      }

      .cls-8 {
        fill: #79170f;
      }

      .cls-9 {
        isolation: isolate;
      }

      .cls-10, .cls-11 {
        mix-blend-mode: multiply;
      }

      .cls-4 {
        fill-rule: evenodd;
      }

      .cls-11 {
        opacity: .75;
      }

      .cls-12 {
        fill: #e5441f;
      }
    </style>
    <filter id="drop-shadow-1" x="0" y="0" width="261.56" height="157.47" filterUnits="userSpaceOnUse">
      <feOffset dx="3.42" dy="0"/>
      <feGaussianBlur result="blur" stdDeviation="5.12"/>
      <feFlood flood-color="#000" flood-opacity=".7"/>
      <feComposite in2="blur" operator="in"/>
      <feComposite in="SourceGraphic"/>
    </filter>
  </defs>
  <g class="cls-9">
    <g id="Camada_2" data-name="Camada 2">
      <g id="Camada_1-2" data-name="Camada 1">
        <g>
          <g>
            <rect class="cls-5" x="180.5" y="52.41" width="237.03" height="52.65" rx="1.34" ry="1.34"/>
            <path class="cls-4" d="M269.47,72.12v15.32s-.02.54.36.55c.38,0,.46-.16.48-.75.02-.58.02-14.61.02-14.61l8.83-3.44s2.47-.73,3.35.05c0,0,.43.52-.25.86-.59.3-9.13,3.56-9.13,3.56l.03,14.57,1.65.02s-.5-.76-.39-1.84c.12-1.08.69-1.38,1.34-1.66.97-.41,7.69-3.06,7.69-3.06v-12.37s-.07-.98-1.73-1.08c-1.67-.1-2.12.14-3.11.5-.82.3-9.14,3.37-9.14,3.37h0ZM283.88,79.94l6.44,5.74s-12.83,0-13.3,0c-.44,0-1.11.14-1.11,1.27s1.02,1.27,1.02,1.27h13.05c.16.01.65-.05.65.42,0,.39-.49.36-.66.36,0,0-12.18,0-12.97,0-.79,0-1.96-.54-1.96-2.08,0-1.45.82-1.73,1.18-1.89l7.73-3.01-.06-2.09h0ZM297.25,68.22v20.68h5.75v-20.68h-5.75ZM322.98,82.84c.03-1.3.03-3.76-1.12-5.6-1.79-2.89-4.64-3.64-8.18-3.64-6.45,0-8.91,3.99-8.91,7.86,0,1.59.39,3.73,2.21,5.55,1.48,1.47,3.24,2.25,6.85,2.25,5.15,0,7.18-1.53,8.82-4.22l-5.94-.52c-.45.52-1.12,1.33-2.73,1.33-2.73,0-3-2.43-3.06-3h12.06ZM310.92,80.09c.15-1.39.82-3.09,3-3.09,2.61,0,2.85,2.25,2.94,3.09h-5.94ZM325.55,73.94v14.96h5.57v-14.96h-5.57ZM325.55,68.22v3.93h5.57v-3.93h-5.57ZM341.79,69.82h-5.82v4.12h-2.14v3.63h2.14v5.81c0,2.31.23,3.64,1.02,4.53.79.92,2.08.99,4.18.99h3.91v-4.18c-3.27,0-3.24,0-3.29-1.31v-5.84h3.19v-3.63h-3.19v-4.12h0ZM364.45,88.9v-14.96h-6.08v7.19c0,1.04,0,3.64-2.47,3.64-2.11,0-2.14-1.82-2.14-2.6v-8.23h-6.07v9.53c0,2.69.98,5.78,5.37,5.78,3.36,0,4.79-1.68,5.65-2.77h.06v2.43h5.68ZM367.26,73.94v14.96l6.4-.03v-5.03c0-4.2,2.17-4.66,5.57-4.24v-5.64c-4.7-.27-6.33,3.14-6.33,3.14v-3.19l-5.65.03h0ZM386.32,78.79c.34-.92.7-1.79,3.17-1.79,2.08,0,2.11,1.04,2.11,1.91-1.47.55-1.98.72-6.59,1.59-2.07.4-4.94,1.13-4.94,4.45,0,1.94,1.34,4.3,5.77,4.3,3.72,0,5.22-1.39,6.1-2.17.12.84.21,1.07.64,1.82h5.71c-.55-1.04-.76-1.59-.76-3.18v-6.61c0-1.01-.43-2.8-1.25-3.64-1.25-1.33-3.02-1.88-7.57-1.88-5.22,0-7.42,1.36-8.18,4.62l5.8.58h0ZM391.6,82.72c0,3.32-3.3,3.32-3.51,3.32-1.89,0-1.95-1.3-1.95-1.53,0-1.1,1.25-1.56,2.23-1.82.18-.03,1.07-.26,1.22-.29.76-.2,1.49-.43,2.01-.61v.92Z"/>
          </g>
          <g class="cls-7">
            <path class="cls-1" d="M182.36,154.16l-2.62.33,1.98-21.32L0,152.19l9.19-70.64,1.93-.2.19-1.43,4.92-.52,4.96-45.11,1.77-.18.16-1.43,124.48-12.73,1.71-14.46L216.63,0l-.24,2.11,2.27-.18-1.26,10.89,16.92-1.73-5.08,46.01,9.69-1.02-1.29,9.85c5.31,1.49,9.8,3.91,13.39,7.18,1.59,1.45,2.98,3.06,4.12,4.8,3.41,3.77,5.46,8.22,6.09,13.24.68,5.43-.14,10.71-2.44,15.73l.45-.06-.32,3.31,2.63-.33-3.65,38.21-75.86,9.45.31-3.31Z"/>
            <path class="cls-12" d="M186.32,150.07l-2.62.33,1.97-21.24L4.12,148.17l8.25-63.37,1.93-.2.19-1.43,4.97-.52,4.96-45.1,1.77-.18.16-1.43,124.46-12.73,1.71-14.4,60.07-4.9-.24,2.11,2.27-.18-1.27,10.98,16.95-1.73-5.08,46.02,9.6-1.01-1.12,8.56c.56.11,1.1.23,1.64.36,5.36,1.3,9.82,3.57,13.29,6.73,1.44,1.32,2.69,2.78,3.7,4.36,3.02,3.26,4.83,7.13,5.38,11.5.67,5.39-.34,10.62-3.03,15.55-.74,1.36-1.64,2.75-2.72,4.18l3.32-.41-.32,3.31,2.63-.33-2.95,30.93-68.62,8.55.31-3.31Z"/>
            <path class="cls-2" d="M190.28,145.99l-2.62.33,1.75-18.79,2.95-2.64L8.24,144.16l7.3-56.1,1.92-.2.19-1.43,5.03-.53,4.96-45.09,1.77-.18.16-1.43,124.44-12.73,1.7-14.34,52.83-4.31-.24,2.11,2.27-.18-1.28,11.07,16.97-1.74-5.08,46.04,9.51-1-.98,7.55c1.65.17,3.25.45,4.79.82,4.76,1.16,8.7,3.14,11.72,5.9,1.3,1.19,2.4,2.5,3.27,3.92,2.64,2.76,4.21,6.04,4.68,9.75.58,4.63-.3,9.14-2.62,13.4-1.75,3.21-4.6,6.7-8.67,10.61l8.43-1.05-.32,3.31,2.63-.33-2.26,23.66-61.38,7.65.31-3.31Z"/>
            <path class="cls-3" d="M225.26,95.66c.18,1.45-.2,2.94-1.15,4.48-.47.76-1.16,1.64-2.06,2.63l1.02-7.84c.8.08,1.52.27,2.16.58,0,.05.02.1.03.15Z"/>
            <g>
              <g>
                <polygon class="cls-5" points="215.8 71.77 26.38 91.15 31.75 42.45 221.18 23.07 215.8 71.77"/>
                <polygon class="cls-6" points="215.8 71.77 26.38 91.15 31.75 42.45 221.18 23.07 215.8 71.77"/>
              </g>
              <g>
                <polygon class="cls-5" points="219.15 116.96 13.4 138.51 19.77 89.68 225.52 68.13 219.15 116.96"/>
                <polygon class="cls-6" points="219.15 116.96 13.4 138.51 19.77 89.68 225.52 68.13 219.15 116.96"/>
              </g>
              <g>
                <g class="cls-11">
                  <g>
                    <path class="cls-8" d="M50.91,98.2c2.63,1.49,4.12,3.83,4.48,7.02.28,2.55-.15,4.87-1.31,6.97-1.16,2.1-2.95,3.82-5.37,5.19-2.42,1.36-5.31,2.23-8.65,2.61l-5.73.65-.78,7.65-11.17,1.27,3.25-31.17,14.73-1.68c4.42-.5,7.94,0,10.57,1.48ZM43.22,110.54c.78-.8,1.09-1.85.95-3.12-.23-2.06-1.74-2.93-4.51-2.61l-3.74.43-.77,7.3,4.59-.52c1.55-.18,2.71-.67,3.48-1.47Z"/>
                    <path class="cls-8" d="M78.07,117.86l-12.64,1.44-2.73,5.67-11.79,1.34,17.74-32.82,10.99-1.25,11.23,29.52-11.12,1.27-1.68-5.18ZM75.69,110.65l-2.47-7.59-4.01,8.33,6.49-.74Z"/>
                    <path class="cls-8" d="M114.85,102.8l9.71-1.11-1.38,13.44c-1.64,1.36-3.57,2.48-5.79,3.37-2.22.88-4.64,1.47-7.25,1.77-3.38.38-6.42.15-9.12-.7-2.7-.85-4.87-2.22-6.5-4.12-1.64-1.9-2.6-4.18-2.9-6.84-.39-3.53.16-6.78,1.65-9.74,1.49-2.95,3.76-5.39,6.81-7.31,3.05-1.92,6.65-3.11,10.82-3.58,6.88-.79,12.12.63,15.72,4.23l-7.37,6.6c-1.18-1.1-2.4-1.83-3.65-2.2-1.25-.37-2.69-.46-4.3-.28-1.92.22-3.56.8-4.91,1.75-1.35.94-2.33,2.16-2.95,3.66-.62,1.49-.83,3.14-.63,4.93.2,1.8,1,3.16,2.42,4.1,1.41.94,3.26,1.28,5.53,1.02,1.14-.13,2.21-.4,3.22-.81l.86-8.19Z"/>
                    <path class="cls-8" d="M135.64,115.98c-2.27-.67-4.07-1.77-5.4-3.32-1.34-1.55-2.13-3.45-2.39-5.71-.1-.93-.1-2.01.02-3.26l1.79-17.14,11.18-1.27-1.76,16.96c-.1.83-.11,1.58-.04,2.25.15,1.36.64,2.34,1.47,2.91.83.58,1.97.79,3.43.62,1.64-.19,2.86-.81,3.68-1.87.81-1.06,1.34-2.75,1.6-5.06l1.76-16.96,10.99-1.25-1.83,17.59c-.5,4.72-2.14,8.43-4.9,11.12-2.77,2.69-6.68,4.32-11.73,4.9-2.97.34-5.58.17-7.85-.49Z"/>
                    <path class="cls-8" d="M176.31,89.06l-.36,3.65,14.02-1.59-.79,7.57-14.06,1.6-.41,4.09,16.62-1.89-.85,7.93-27.56,3.14,3.25-31.17,26.94-3.07-.84,7.93-15.96,1.82Z"/>
                  </g>
                </g>
                <g>
                  <path class="cls-3" d="M50.05,97.31c2.63,1.49,4.12,3.83,4.48,7.02.28,2.55-.15,4.87-1.31,6.97-1.16,2.1-2.95,3.82-5.37,5.19-2.42,1.36-5.31,2.23-8.65,2.61l-5.73.65-.78,7.65-11.17,1.27,3.25-31.17,14.73-1.68c4.42-.5,7.94,0,10.57,1.48ZM42.36,109.64c.78-.8,1.09-1.85.95-3.12-.23-2.06-1.74-2.93-4.51-2.61l-3.74.43-.77,7.3,4.59-.52c1.55-.18,2.71-.67,3.48-1.47Z"/>
                  <path class="cls-3" d="M77.21,116.96l-12.64,1.44-2.73,5.67-11.79,1.34,17.74-32.82,10.99-1.25,11.23,29.52-11.12,1.27-1.68-5.18ZM74.82,109.75l-2.47-7.59-4.01,8.33,6.49-.74Z"/>
                  <path class="cls-3" d="M113.98,101.9l9.71-1.11-1.38,13.44c-1.64,1.36-3.57,2.48-5.79,3.37-2.22.88-4.64,1.47-7.26,1.77-3.38.38-6.42.15-9.12-.7-2.7-.85-4.87-2.22-6.5-4.12-1.64-1.9-2.6-4.18-2.9-6.84-.39-3.53.16-6.78,1.65-9.74,1.49-2.95,3.76-5.39,6.81-7.31,3.05-1.92,6.65-3.11,10.82-3.58,6.88-.79,12.13.63,15.72,4.23l-7.37,6.6c-1.18-1.1-2.4-1.83-3.65-2.2-1.25-.37-2.69-.46-4.3-.28-1.92.22-3.56.8-4.91,1.75-1.35.94-2.33,2.16-2.95,3.66-.62,1.49-.83,3.14-.63,4.93.2,1.8,1,3.16,2.42,4.1,1.41.94,3.26,1.28,5.53,1.02,1.14-.13,2.21-.4,3.22-.81l.86-8.19Z"/>
                  <path class="cls-3" d="M134.77,115.09c-2.27-.67-4.07-1.77-5.4-3.32-1.34-1.55-2.13-3.45-2.39-5.71-.1-.93-.1-2.01.02-3.26l1.79-17.14,11.18-1.27-1.76,16.96c-.1.83-.11,1.58-.04,2.25.15,1.36.64,2.34,1.47,2.91.83.58,1.97.79,3.43.62,1.64-.19,2.86-.81,3.68-1.87.81-1.06,1.34-2.75,1.6-5.06l1.76-16.96,10.99-1.25-1.83,17.59c-.5,4.72-2.14,8.43-4.9,11.12-2.77,2.69-6.68,4.32-11.73,4.9-2.97.34-5.58.17-7.85-.49Z"/>
                  <path class="cls-3" d="M175.44,88.17l-.36,3.65,14.02-1.59-.79,7.57-14.06,1.6-.41,4.09,16.62-1.89-.85,7.93-27.56,3.14,3.25-31.17,26.94-3.07-.84,7.93-15.96,1.82Z"/>
                </g>
              </g>
              <g>
                <path class="cls-8" d="M203.96,26.69l-13.03,13.36c3.77.88,6.79,2.57,9.04,5.05,2.25,2.49,3.52,5.54,3.81,9.14.34,4.37-.7,8.43-3.13,12.2-2.43,3.76-5.93,6.84-10.49,9.23-4.57,2.39-9.77,3.83-15.6,4.3-4.49.37-8.81.18-12.95-.55-4.14-.73-7.87-2.06-11.2-3.99l8.21-15.29c2.45,1.29,5.08,2.2,7.88,2.74,2.8.54,5.52.71,8.14.49,2.86-.23,5.01-.87,6.45-1.91,1.44-1.04,2.1-2.41,1.96-4.12-.2-2.48-2.34-3.56-6.42-3.22l-8.49.69,1.51-13.04,9.94-10.17-21.71,1.77,1.9-16.01,45.69-3.73-1.51,13.05Z"/>
                <path class="cls-3" d="M201.94,24.74l-13.01,13.33c3.77.88,6.77,2.56,9.02,5.04,2.25,2.49,3.52,5.53,3.8,9.12.34,4.36-.69,8.41-3.12,12.17-2.42,3.75-5.91,6.83-10.47,9.21-4.56,2.38-9.75,3.82-15.57,4.29-4.48.37-8.79.18-12.92-.55-4.13-.73-7.85-2.06-11.17-3.98l8.2-15.26c2.45,1.28,5.06,2.2,7.86,2.74,2.8.54,5.51.71,8.13.49,2.85-.23,5-.86,6.44-1.9,1.44-1.03,2.1-2.41,1.96-4.11-.19-2.48-2.33-3.55-6.41-3.21l-8.47.69,1.51-13.01,9.92-10.15-21.66,1.77,1.89-15.98,45.59-3.72-1.51,13.02Z"/>
              </g>
              <g>
                <g class="cls-11">
                  <g>
                    <path class="cls-8" d="M40.48,52.52l9.89-1.13-1.87,22.41,13.24-1.51-.69,7.93-23.13,2.63,2.56-30.34Z"/>
                    <path class="cls-8" d="M75.34,56.2l-.28,3.55,12.41-1.41-.62,7.37-12.44,1.41-.32,3.99,14.71-1.67-.67,7.72-24.39,2.77,2.55-30.33,23.85-2.71-.67,7.72-14.12,1.61Z"/>
                    <path class="cls-8" d="M125.42,42.87l-14.96,31.75-9.72,1.1-9.85-28.93,10.14-1.15,5.57,16.88,8.67-18.5,10.14-1.15Z"/>
                    <path class="cls-8" d="M135.47,49.36l-.29,3.55,12.41-1.41-.62,7.37-12.44,1.42-.32,3.99,14.71-1.67-.67,7.72-24.39,2.77,2.56-30.34,23.84-2.71-.67,7.72-14.12,1.61Z"/>
                  </g>
                </g>
                <g>
                  <path class="cls-3" d="M39.65,51.64l9.89-1.13-1.87,22.41,13.24-1.51-.69,7.94-23.13,2.63,2.56-30.34Z"/>
                  <path class="cls-3" d="M74.51,55.31l-.28,3.55,12.41-1.41-.62,7.37-12.44,1.42-.32,3.98,14.71-1.67-.67,7.72-24.39,2.77,2.55-30.33,23.85-2.71-.67,7.72-14.12,1.6Z"/>
                  <path class="cls-3" d="M124.59,41.98l-14.96,31.74-9.72,1.1-9.85-28.92,10.14-1.15,5.57,16.88,8.68-18.5,10.14-1.15Z"/>
                  <path class="cls-3" d="M134.64,48.48l-.29,3.55,12.41-1.41-.62,7.37-12.44,1.42-.32,3.98,14.71-1.67-.67,7.71-24.39,2.78,2.56-30.34,23.84-2.71-.67,7.72-14.12,1.6Z"/>
                </g>
              </g>
              <g>
                <g class="cls-10">
                  <path class="cls-8" d="M226.69,124.81l21.91-2.73-1.56,16.39-54.14,6.75,1.21-12.98,25.81-23.12c2.7-2.46,4.52-4.45,5.47-5.99.95-1.53,1.34-3.02,1.15-4.48-.17-1.33-.87-2.34-2.09-3.01-1.23-.67-2.78-.89-4.64-.66-1.99.25-3.85,1-5.55,2.24-1.7,1.24-3.18,2.89-4.43,4.93l-16.22-6.56c2.12-4.45,5.63-8.24,10.53-11.35,4.9-3.12,10.6-5.08,17.1-5.9,4.95-.61,9.52-.42,13.7.59,4.18,1.02,7.56,2.7,10.14,5.06s4.09,5.19,4.51,8.5c.49,3.89-.25,7.64-2.22,11.25-1.96,3.61-5.68,7.81-11.15,12.63l-9.52,8.44Z"/>
                </g>
                <path class="cls-3" d="M224.37,121.83l21.91-2.73-1.56,16.39-54.14,6.75,1.21-12.98,25.81-23.12c2.7-2.46,4.52-4.46,5.47-5.99.95-1.54,1.34-3.02,1.15-4.48-.17-1.33-.87-2.34-2.09-3.01-1.23-.67-2.78-.89-4.64-.66-2,.24-3.85,1-5.55,2.24-1.7,1.24-3.18,2.89-4.43,4.93l-16.21-6.56c2.12-4.45,5.63-8.24,10.53-11.36,4.91-3.12,10.61-5.08,17.11-5.89,4.95-.62,9.52-.42,13.7.59,4.18,1.02,7.56,2.7,10.15,5.06,2.59,2.36,4.09,5.19,4.5,8.5.49,3.89-.25,7.64-2.21,11.24-1.96,3.61-5.68,7.82-11.15,12.63l-9.52,8.44Z"/>
              </g>
            </g>
          </g>
        </g>
      </g>
    </g>
  </g>
</svg>